<?xml version="1.0" encoding="utf-8"?>
<!-- Generator: Adobe Illustrator 16.0.0, SVG Export Plug-In . SVG Version: 6.00 Build 0)  -->
<!DOCTYPE svg PUBLIC "-//W3C//DTD SVG 1.1//EN" "http://www.w3.org/Graphics/SVG/1.1/DTD/svg11.dtd">
<svg version="1.1" id="Layer_1" xmlns="http://www.w3.org/2000/svg" xmlns:xlink="http://www.w3.org/1999/xlink" x="0px" y="0px"
	 width="500px" height="500px" viewBox="0 0 272.361 347.059" enable-background="new 0 0 272.361 347.059"
	 xml:space="preserve">
<g>
	<path fill="#ffffff" d="M144.938,347.059V242.607l20.897-22.541l-98.68-98.053l31.647-30.29V69.096L40.536,127.36l86.887,86.345
		v132.793h-28.62v-120.89L0,127.424L127.423,0v103.946l-19.274,18.452l97.47,96.852l-32.062,34.585v24.123l58.266-58.269
		l-86.885-86.341V0.555h28.619V121.44l98.804,98.187L144.938,347.059z M103.803,341.499h18.62V215.786l-88.969-88.415l70.349-70.346
		v36.833l-29.486,28.222l98.47,97.843l-22.849,24.645v90.418l115.341-115.349l-96.722-96.117V5.555h-18.619v125.712l88.967,88.41
		l-70.348,70.352v-38.156l30.111-32.482l-97.681-97.061l21.435-20.521V12.071L7.082,127.414l96.721,96.116V341.499z"/>
</g>
</svg>
